# xmcd CD database file
#
# Track frame offsets:
#	150
#	17735
#	39715
#
# Disc length: 762 seconds
#
# Revision: 0
# Processed by: cddbd v1.5.1PL0 Copyright (c) Steve Scherf et al.
# Submitted via: CDex 1.51
#
DISCID=1d02f803
DTITLE=平田輝 - 心でつながっていよう
DYEAR=1994
DGENRE=Pop
TTITLE0=心でつながっていよう
TTITLE1=MAKE A MAGIC
TTITLE2=心でつながっていよう
EXTD=YEAR: 1994
EXTT0=
EXTT1=
EXTT2=
PLAYORDER=
